<svg width="390" height="689" viewBox="0 0 390 689" fill="none" xmlns="http://www.w3.org/2000/svg">
<path d="M390 437.5C359.233 484 368 470.75 346 504C318.13 545 341 511 318.13 545C295.261 579 280.684 611.456 257 635.145C222.861 669.29 182.606 689 139.5 689C88.5135 689 37.6064 656.923 2.33185e-05 610.5C2.33185e-05 534 0.0988944 426.891 2.33185e-05 307C-0.0988477 187.109 0.500061 88.4999 4.66835e-05 -0.500061C41.0001 -0.500023 79.5788 2.38419e-07 135.5 2.38419e-07C191.421 2.38419e-07 332.5 -0.500043 390 -0.500046C390 62.5 390 328.45 390 437.5Z" fill="url(#paint0_linear_236_10)" fill-opacity="0.23"/>
<path d="M390 395.756C359.234 437.772 368.001 425.8 346.001 455.843C318.132 492.888 341.001 462.168 318.132 492.888C295.263 523.609 280.687 552.935 257.004 574.339C222.866 605.191 182.612 623 139.507 623C88.5221 623 37.6165 594.017 0.0112535 552.071C0.0112535 482.949 0.110122 386.17 0.0112535 277.843C-0.0876147 169.515 0.511277 80.4162 0.0112768 0C41.0101 3.44678e-05 79.5877 0.451832 135.507 0.451832C191.427 0.451832 332.502 1.63557e-05 390 1.37333e-05C390 56.9239 390 297.224 390 395.756Z" fill="url(#paint1_linear_236_10)" fill-opacity="0.23"/>
<path d="M390 237.591C390 356.904 390 458.851 390 540.541C343.545 568.798 289.432 585 231.667 585C139.859 585 57.2785 544.075 3.64314e-05 478.875C3.64314e-05 412.797 1.7257e-05 343.667 1.7257e-05 259.617C1.7257e-05 175.567 5.66004e-06 74.3988 0 3.02103e-06C59.2589 -6.2411e-06 129.303 8.74982e-06 221.111 8.74982e-06C290.977 8.74982e-06 336.719 -8.98674e-06 390 8.74982e-06C390 58.3799 390 130.812 390 237.591Z" fill="url(#paint2_linear_236_10)"/>
<defs>
<linearGradient id="paint0_linear_236_10" x1="207" y1="25" x2="149" y2="599" gradientUnits="userSpaceOnUse">
<stop offset="0.634615" stop-color="#D50000"/>
<stop offset="1" stop-color="#BB2B35"/>
</linearGradient>
<linearGradient id="paint1_linear_236_10" x1="207.005" y1="23.0407" x2="159.564" y2="542.644" gradientUnits="userSpaceOnUse">
<stop offset="0.634615" stop-color="#D50000"/>
<stop offset="1" stop-color="#FC757E"/>
</linearGradient>
<linearGradient id="paint2_linear_236_10" x1="195" y1="2.09936e-06" x2="300.692" y2="585.152" gradientUnits="userSpaceOnUse">
<stop offset="0.259615" stop-color="#C4000F" stop-opacity="0.69"/>
<stop offset="0.783654" stop-color="#F40013" stop-opacity="0.3"/>
</linearGradient>
</defs>
</svg>
