<svg width="389" height="638" viewBox="0 0 389 638" fill="none" xmlns="http://www.w3.org/2000/svg">
<path d="M389 202.5C389 222.96 389 254.5 389 273C389 305.5 389 327.5 389 360.5C389 382 389 369.5 389 389C389 399 389 394.5 389 427C299 534 187 565 187 565C169 570 131 589 -0.999873 589C-0.999924 545 -0.999948 513.5 -0.999946 501C-0.999946 481 -0.999946 482.5 -0.999946 459.5C-0.999946 426.5 -0.999946 391 -0.999946 354C-0.999946 308.5 -0.999946 281.989 -0.999946 234.5C-0.999946 217.522 -0.99993 177 -0.99993 159.5C-0.999946 125.5 -0.999973 88.5001 -0.999991 58.5001C-1.00002 28.5001 -0.999991 25.0002 -0.999873 0.000171661C10.5 0.000171661 12 0.000171269 16 0.000173092C28 0.000174628 19.5 0.000157197 33.5 0.000173092C54.5 0.000179768 71 0.000226498 93.5 0.000173092C118.5 0.000173092 130.102 0.000173092 157 0.000173092C191.171 0.000173092 225.5 0 255.5 0C289.75 0 295.5 0 323.5 0C354.5 0 366 0 389 0C389 32.5 389 68.5 389 108C389 140.5 389 164.059 389 202.5Z" fill="url(#paint0_linear_213_88)" fill-opacity="0.28"/>
<path d="M389 243.862C389 300.512 389 356.028 389 402.597C337.027 475.825 248.799 524 148.704 524C93.9134 524 42.6789 509.565 -1 484.489C-1 399.592 -0.999951 372.008 -0.999951 272.404C-0.999951 172.8 1.99414 86.1277 -0.999996 3.29506e-05C42.9132 3.29506e-05 155.292 2.53099e-05 210.082 2.53099e-05C253.186 2.53099e-05 355.794 4.05913e-05 389 0C389 64.095 389 133.177 389 243.862Z" fill="url(#paint1_linear_213_88)" fill-opacity="0.28"/>
<path d="M388.243 312.755C389.321 343.231 389.011 373.208 388.742 399.187C388.742 455.643 388.742 481.623 388.742 536.08C388.742 558.063 388.742 552.067 388.742 572.052C347.75 607.993 289.022 638 235.73 638C140.277 638 43.0715 569.047 -0.999995 469.132C-0.999997 418.172 -0.999994 361.717 -0.999995 301.764C-0.999995 252.312 -0.999995 214.832 -0.999995 168.868C-0.999995 109.914 -1 56.9554 -1 0.499613C23.0208 -0.253298 133.411 0.499617 157.395 0.499613C183.878 0.499613 234.344 0.49961 261.826 0.499623C308.295 0.499645 357.763 0 388.742 0C388.742 26.4793 388.742 80.437 388.742 115.41C388.742 149.383 388.742 171.865 388.742 204.84C388.742 243.309 388.243 275.284 388.243 312.755Z" fill="#DE0F3F" fill-opacity="0.1"/>
<rect x="-1" width="390" height="429" fill="url(#paint2_linear_213_88)" fill-opacity="0.3"/>
<path d="M389 192C389 284.564 389 353 389 439.585C348.848 464.56 301.358 479 250.468 479C130.712 479 29.7859 399.035 -1 290C-0.999994 269 -1 24.2566 -1 1.65432e-06C60.1122 -8.58419e-07 244.789 2.38187e-07 389 2.38187e-07C389 91 389 48.9582 389 192Z" fill="url(#paint3_linear_213_88)" fill-opacity="0.28"/>
<defs>
<linearGradient id="paint0_linear_213_88" x1="194" y1="0" x2="194" y2="589" gradientUnits="userSpaceOnUse">
<stop offset="0.626486" stop-color="#F70606"/>
<stop offset="1" stop-color="#990000"/>
</linearGradient>
<linearGradient id="paint1_linear_213_88" x1="194" y1="0" x2="194" y2="524" gradientUnits="userSpaceOnUse">
<stop offset="0.0673077" stop-color="#FF8991"/>
<stop offset="0.3125" stop-color="#BB2B35"/>
<stop offset="0.498831" stop-color="#BB2B35"/>
<stop offset="0.701422" stop-color="#BB2B35"/>
<stop offset="0.881077" stop-color="#DD3B5E" stop-opacity="0.94"/>
</linearGradient>
<linearGradient id="paint2_linear_213_88" x1="230.407" y1="78.1029" x2="125.075" y2="383.073" gradientUnits="userSpaceOnUse">
<stop offset="0.0899654" stop-color="#B50000"/>
<stop offset="0.347174" stop-color="#F40013" stop-opacity="0.6"/>
<stop offset="0.932692" stop-color="#C08287" stop-opacity="0.1"/>
</linearGradient>
<linearGradient id="paint3_linear_213_88" x1="194" y1="0" x2="194" y2="479" gradientUnits="userSpaceOnUse">
<stop offset="0.403846" stop-color="#F40013"/>
<stop offset="0.673077" stop-color="#D60D1C" stop-opacity="0.676923"/>
<stop offset="0.778846" stop-color="#BC1823" stop-opacity="0.4"/>
</linearGradient>
</defs>
</svg>
