<svg width="490" height="811" viewBox="0 0 490 811" fill="none" xmlns="http://www.w3.org/2000/svg">
<path d="M489.117 514.864C450.532 569.525 461.526 553.949 433.936 593.034C398.984 641.23 427.665 601.263 398.984 641.23C370.303 681.196 352.023 719.348 322.32 747.193C279.506 787.331 229.022 810.5 174.963 810.5C111.02 810.5 47.1766 772.794 0.0141135 718.224C0.0141135 628.299 0.138109 502.393 0.0141135 361.463C-0.109882 220.532 0.641215 104.619 0.0141428 0C51.4326 4.48414e-05 99.8145 0.587817 169.946 0.587817C240.077 0.587817 417.005 2.12781e-05 489.117 1.78665e-05C489.117 74.0559 489.117 386.677 489.117 514.864Z" fill="url(#paint0_linear_461_35)" fill-opacity="0.23"/>
<path d="M489.117 465.795C450.533 515.184 461.527 501.111 433.938 536.426C398.987 579.973 427.667 543.861 398.987 579.973C370.307 616.085 352.027 650.557 322.325 675.717C279.512 711.983 229.029 732.918 174.972 732.918C111.031 732.918 47.1894 698.848 0.0282732 649.542C0.0282732 568.29 0.152265 454.527 0.0282732 327.189C-0.0957183 199.851 0.655357 95.1162 0.0283025 0.587807C51.4453 0.587847 99.8258 1.11893 169.955 1.11893C240.085 1.11893 417.008 0.587826 489.117 0.587823C489.117 67.5013 489.117 349.971 489.117 465.795Z" fill="url(#paint1_linear_461_35)" fill-opacity="0.23"/>
<path d="M489.112 279.721C489.112 419.973 489.112 539.811 489.113 635.836C430.853 669.051 362.99 688.097 290.545 688.097C175.408 688.097 71.8435 639.99 0.0100555 563.348C0.0100555 485.674 0.0100314 404.412 0.0100314 305.613C0.0100314 206.813 0.0100169 87.8905 0.0100098 0.435573C74.3271 0.435562 162.17 0.43558 277.307 0.43558C364.926 0.43558 422.293 0.435559 489.112 0.43558C489.112 69.0605 489.112 154.203 489.112 279.721Z" fill="url(#paint2_linear_461_35)"/>
<defs>
<linearGradient id="paint0_linear_461_35" x1="259.615" y1="29.9751" x2="195.632" y2="705.535" gradientUnits="userSpaceOnUse">
<stop offset="0.634615" stop-color="#D50000"/>
<stop offset="1" stop-color="#BB2B35"/>
</linearGradient>
<linearGradient id="paint1_linear_461_35" x1="259.621" y1="27.6719" x2="207.298" y2="639.074" gradientUnits="userSpaceOnUse">
<stop offset="0.634615" stop-color="#D50000"/>
<stop offset="1" stop-color="#FC757E"/>
</linearGradient>
<linearGradient id="paint2_linear_461_35" x1="244.561" y1="0.435572" x2="361.461" y2="690.925" gradientUnits="userSpaceOnUse">
<stop offset="0.259615" stop-color="#C4000F" stop-opacity="0.69"/>
<stop offset="0.783654" stop-color="#F40013" stop-opacity="0.3"/>
</linearGradient>
</defs>
</svg>
