<svg width="390" height="470" viewBox="0 0 390 470" fill="none" xmlns="http://www.w3.org/2000/svg">
<path d="M390 264.734C390 303.729 389.582 345.596 390 374.031C348.996 431.673 276.264 470 193.374 470C112.633 470 41.529 433.634 2.67493e-05 378.474C2.67493e-05 348.262 0 307.339 0 265.623C0 223.906 4.20346e-05 42.8501 2.67493e-05 0.197466C45.6176 -0.246833 112.633 0.19746 193.374 0.19746C274.115 0.19746 322.344 0.197409 390 0.197447C390 37.7888 390 224.595 390 264.734Z" fill="#B50000" fill-opacity="0.33"/>
<path d="M390 0C390 54.4523 389.854 270.023 389.854 312.557C349.555 362.756 288.527 394.759 220.218 394.759C98.8706 394.759 0.499354 293.765 0.499354 169.182C0.499354 44.5999 -0.000199408 90.8041 5.97186e-08 0C121.347 0 340.563 0 390 0Z" fill="#D60D1C" fill-opacity="0.26"/>
<path d="M390 0C390 38.1435 390 233.135 390 270.657C345.471 311.599 274.698 338.07 195 338.07C115.302 338.07 44.5289 311.599 0 270.657C0 241.207 0 38.1435 0 9.05643e-07C36 1.90185e-05 60.2425 0 195 0C329.757 0 362.5 7.24514e-06 390 0Z" fill="url(#paint0_linear_417_35)"/>
<defs>
<linearGradient id="paint0_linear_417_35" x1="285" y1="54.6272" x2="172.713" y2="328.948" gradientUnits="userSpaceOnUse">
<stop offset="0.120192" stop-color="#BB2B35"/>
<stop offset="0.475962" stop-color="#BB2B35" stop-opacity="0.7"/>
<stop offset="0.807692" stop-color="#BB2B35" stop-opacity="0.3"/>
</linearGradient>
</defs>
</svg>
