<svg width="390" height="844" viewBox="0 0 390 844" fill="none" xmlns="http://www.w3.org/2000/svg">
<g clip-path="url(#clip0_372_29)">
<rect width="390" height="844" fill="white"/>
<path d="M390 256.848C390 294.682 389.582 335.302 390 362.89C348.996 418.815 276.264 456 193.374 456C112.633 456 41.529 420.718 2.67493e-05 367.201C2.67493e-05 337.888 0 298.184 0 257.711C0 217.237 4.20346e-05 41.5737 2.67493e-05 0.191584C45.6176 -0.23948 112.633 0.191578 193.374 0.191578C274.115 0.191578 322.344 0.191529 390 0.191565C390 36.6632 390 217.905 390 256.848Z" fill="#B50000" fill-opacity="0.33"/>
<path d="M390 0C390 52.8303 389.854 261.979 389.854 303.247C349.555 351.95 288.527 383 220.218 383C98.8706 383 0.499354 285.014 0.499354 164.143C0.499354 43.2714 -0.000199408 88.0993 5.97186e-08 0C121.347 0 340.563 0 390 0Z" fill="#D60D1C" fill-opacity="0.26"/>
<path d="M390 0C390 37.0073 390 226.191 390 262.595C345.471 302.318 274.698 328 195 328C115.302 328 44.5289 302.318 0 262.595C0 234.022 0 37.0073 0 8.78666e-07C36 1.8452e-05 60.2425 0 195 0C329.757 0 362.5 7.02933e-06 390 0Z" fill="url(#paint0_linear_372_29)"/>
<path d="M-16 844C-16 795.951 22.9512 757 71 757H325C373.049 757 412 795.951 412 844V844H360.421H189.221H-16V844Z" fill="url(#paint1_linear_372_29)"/>
</g>
<defs>
<linearGradient id="paint0_linear_372_29" x1="285" y1="53" x2="178.405" y2="321.41" gradientUnits="userSpaceOnUse">
<stop offset="0.120192" stop-color="#BB2B35"/>
<stop offset="0.475962" stop-color="#BB2B35" stop-opacity="0.7"/>
<stop offset="0.807692" stop-color="#BB2B35" stop-opacity="0.3"/>
</linearGradient>
<linearGradient id="paint1_linear_372_29" x1="39.9692" y1="841" x2="364.81" y2="841" gradientUnits="userSpaceOnUse">
<stop offset="0.153846" stop-color="#F48CA0"/>
<stop offset="1" stop-color="#BC1823"/>
</linearGradient>
<clipPath id="clip0_372_29">
<rect width="390" height="844" fill="white"/>
</clipPath>
</defs>
</svg>
