<svg width="390" height="844" viewBox="0 0 390 844" fill="none" xmlns="http://www.w3.org/2000/svg">
<rect width="390" height="844" fill="white"/>
<path d="M390 264.734C390 303.729 389.582 345.596 390 374.032C348.996 431.673 276.264 470 193.374 470C112.633 470 41.529 433.635 2.67493e-05 378.474C2.67493e-05 348.262 0 307.339 0 265.623C0 223.906 4.20346e-05 42.8501 2.67493e-05 0.197466C45.6176 -0.246833 112.633 0.19746 193.374 0.19746C274.115 0.19746 322.344 0.197409 390 0.197447C390 37.7888 390 224.595 390 264.734Z" fill="#B50000" fill-opacity="0.33"/>
<path d="M390 0C390 54.4523 389.854 270.023 389.854 312.557C349.555 362.756 288.527 394.759 220.218 394.759C98.8706 394.759 0.499354 293.765 0.499354 169.182C0.499354 44.5999 -0.000199408 90.8041 5.97186e-08 0C121.347 0 340.563 0 390 0Z" fill="#D60D1C" fill-opacity="0.26"/>
<path d="M390 0C390 38.1435 390 233.135 390 270.657C345.471 311.599 274.698 338.07 195 338.07C115.302 338.07 44.5289 311.599 0 270.657C0 241.207 0 38.1435 0 9.05643e-07C36 1.90185e-05 60.2425 0 195 0C329.757 0 362.5 7.24514e-06 390 0Z" fill="url(#paint0_linear_417_34)"/>
<g clip-path="url(#clip0_417_34)">
<path d="M255 677.25L249.375 681V679.125H240.469L244.219 675.375H249.375V673.5L255 677.25ZM225 654.75L230.625 651V652.875H239.531L235.781 656.625H230.625V658.5L225 654.75ZM243.262 651L225 669.262L236.738 681L255 662.738L243.262 651ZM227.606 669.262L243.262 653.606L252.394 662.738L236.738 678.394L227.606 669.262Z" fill="white"/>
<path d="M232.819 669.263L231.506 670.575L235.425 674.494L236.738 673.181L238.125 674.475L243.263 669.263C242.393 670.107 241.226 670.575 240.014 670.566C238.802 670.557 237.642 670.072 236.785 669.215C235.928 668.358 235.443 667.198 235.434 665.986C235.425 664.774 235.893 663.607 236.738 662.738L231.525 667.875L232.819 669.263Z" fill="white"/>
<path d="M248.475 661.444L244.556 657.525L243.244 658.837L241.875 657.525L236.738 662.737C237.607 661.893 238.774 661.425 239.986 661.434C241.198 661.443 242.358 661.928 243.215 662.785C244.072 663.642 244.557 664.802 244.566 666.014C244.575 667.226 244.107 668.393 243.263 669.262L248.475 664.125L247.163 662.812L248.475 661.444Z" fill="white"/>
</g>
<g filter="url(#filter0_d_417_34)">
<rect x="12" y="236" width="364" height="227" rx="15" fill="white"/>
<rect x="12.5" y="236.5" width="363" height="226" rx="14.5" stroke="black"/>
</g>
<path d="M171.895 454.843C172.845 453.677 174.269 453 175.773 453H213.8C215.349 453 216.81 453.718 217.757 454.943L236.03 478.594C238.57 481.881 236.227 486.651 232.074 486.651H156.518C152.306 486.651 149.981 481.761 152.641 478.494L171.895 454.843Z" fill="#BC1823"/>
<line x1="182.383" y1="455.972" x2="205.617" y2="455.972" stroke="white"/>
<defs>
<filter id="filter0_d_417_34" x="5" y="236" width="378" height="242" filterUnits="userSpaceOnUse" color-interpolation-filters="sRGB">
<feFlood flood-opacity="0" result="BackgroundImageFix"/>
<feColorMatrix in="SourceAlpha" type="matrix" values="0 0 0 0 0 0 0 0 0 0 0 0 0 0 0 0 0 0 127 0" result="hardAlpha"/>
<feOffset dy="8"/>
<feGaussianBlur stdDeviation="3.5"/>
<feComposite in2="hardAlpha" operator="out"/>
<feColorMatrix type="matrix" values="0 0 0 0 0 0 0 0 0 0 0 0 0 0 0 0 0 0 0.25 0"/>
<feBlend mode="normal" in2="BackgroundImageFix" result="effect1_dropShadow_417_34"/>
<feBlend mode="normal" in="SourceGraphic" in2="effect1_dropShadow_417_34" result="shape"/>
</filter>
<linearGradient id="paint0_linear_417_34" x1="285" y1="54.6272" x2="172.713" y2="328.948" gradientUnits="userSpaceOnUse">
<stop offset="0.120192" stop-color="#BB2B35"/>
<stop offset="0.475962" stop-color="#BB2B35" stop-opacity="0.7"/>
<stop offset="0.807692" stop-color="#BB2B35" stop-opacity="0.3"/>
</linearGradient>
<clipPath id="clip0_417_34">
<rect width="30" height="30" fill="white" transform="translate(225 651)"/>
</clipPath>
</defs>
</svg>
