<svg width="23" height="30" viewBox="0 0 23 30" fill="none" xmlns="http://www.w3.org/2000/svg">
<path d="M10 3.41374V15C10 15.2652 9.89464 15.5196 9.70711 15.7071C9.51957 15.8946 9.26522 16 9 16C8.73478 16 8.48043 15.8946 8.29289 15.7071C8.10536 15.5196 8 15.2652 8 15V3.41374L5.7075 5.70749C5.51986 5.89513 5.26536 6.00055 5 6.00055C4.73464 6.00055 4.48014 5.89513 4.2925 5.70749C4.10486 5.51985 3.99944 5.26536 3.99944 4.99999C3.99944 4.73463 4.10486 4.48013 4.2925 4.29249L8.2925 0.292493C8.38537 0.199517 8.49566 0.125758 8.61706 0.0754335C8.73846 0.0251092 8.86858 -0.000793457 9 -0.000793457C9.13142 -0.000793457 9.26154 0.0251092 9.38294 0.0754335C9.50434 0.125758 9.61463 0.199517 9.7075 0.292493L13.7075 4.29249C13.8951 4.48013 14.0006 4.73463 14.0006 4.99999C14.0006 5.26536 13.8951 5.51985 13.7075 5.70749C13.5199 5.89513 13.2654 6.00055 13 6.00055C12.7346 6.00055 12.4801 5.89513 12.2925 5.70749L10 3.41374ZM18 14.4525V11C18 10.4696 17.7893 9.96085 17.4142 9.58578C17.0391 9.21071 16.5304 8.99999 16 8.99999H14C13.7348 8.99999 13.4804 9.10535 13.2929 9.29289C13.1054 9.48042 13 9.73478 13 9.99999C13 10.2652 13.1054 10.5196 13.2929 10.7071C13.4804 10.8946 13.7348 11 14 11H16V21.05C15.4036 20.4408 14.6055 20.0702 13.7552 20.0077C12.905 19.9453 12.0612 20.1953 11.3823 20.7109C10.7033 21.2264 10.2359 21.972 10.0677 22.8078C9.89949 23.6435 10.0421 24.5119 10.4688 25.25L10.4988 25.2975L13.2812 29.5475C13.4265 29.7694 13.6539 29.9246 13.9135 29.9789C14.1731 30.0332 14.4437 29.9821 14.6656 29.8369C14.8876 29.6917 15.0428 29.4642 15.097 29.2046C15.1513 28.945 15.1002 28.6744 14.955 28.4525L12.1887 24.2287C11.9927 23.8825 11.9421 23.4725 12.0483 23.089C12.1545 22.7055 12.4087 22.3798 12.755 22.1837C13.1013 21.9876 13.5113 21.9371 13.8948 22.0433C14.2783 22.1495 14.6039 22.4037 14.8 22.75C14.8087 22.7662 14.8188 22.7825 14.8288 22.7975L16.1637 24.8362C16.2818 25.0162 16.4547 25.1533 16.6568 25.2272C16.8589 25.301 17.0795 25.3077 17.2857 25.2462C17.492 25.1847 17.6729 25.0583 17.8015 24.8858C17.9302 24.7134 17.9998 24.5039 18 24.2887V17C18.9426 17.8725 19.6954 18.9298 20.2115 20.1059C20.7276 21.282 20.996 22.5518 21 23.8362V29C21 29.2652 21.1054 29.5196 21.2929 29.7071C21.4804 29.8946 21.7348 30 22 30C22.2652 30 22.5196 29.8946 22.7071 29.7071C22.8946 29.5196 23 29.2652 23 29V23.8312C22.9943 21.9788 22.5358 20.1558 21.6643 18.5211C20.7928 16.8865 19.5349 15.4897 18 14.4525ZM4 8.99999H2C1.46957 8.99999 0.960859 9.21071 0.585786 9.58578C0.210714 9.96085 0 10.4696 0 11V24C0 24.2652 0.105357 24.5196 0.292893 24.7071C0.48043 24.8946 0.734784 25 1 25C1.26522 25 1.51957 24.8946 1.70711 24.7071C1.89464 24.5196 2 24.2652 2 24V11H4C4.26522 11 4.51957 10.8946 4.70711 10.7071C4.89464 10.5196 5 10.2652 5 9.99999C5 9.73478 4.89464 9.48042 4.70711 9.29289C4.51957 9.10535 4.26522 8.99999 4 8.99999Z" fill="white"/>
</svg>
