<svg width="32" height="32" viewBox="0 0 32 32" fill="none" xmlns="http://www.w3.org/2000/svg">
<path d="M16 4.41374V16C16 16.2652 15.8946 16.5196 15.7071 16.7071C15.5196 16.8946 15.2652 17 15 17C14.7348 17 14.4804 16.8946 14.2929 16.7071C14.1054 16.5196 14 16.2652 14 16V4.41374L11.7075 6.70749C11.5199 6.89513 11.2654 7.00055 11 7.00055C10.7346 7.00055 10.4801 6.89513 10.2925 6.70749C10.1049 6.51985 9.99944 6.26536 9.99944 5.99999C9.99944 5.73463 10.1049 5.48013 10.2925 5.29249L14.2925 1.29249C14.3854 1.19952 14.4957 1.12576 14.6171 1.07543C14.7385 1.02511 14.8686 0.999207 15 0.999207C15.1314 0.999207 15.2615 1.02511 15.3829 1.07543C15.5043 1.12576 15.6146 1.19952 15.7075 1.29249L19.7075 5.29249C19.8951 5.48013 20.0006 5.73463 20.0006 5.99999C20.0006 6.26536 19.8951 6.51985 19.7075 6.70749C19.5199 6.89513 19.2654 7.00055 19 7.00055C18.7346 7.00055 18.4801 6.89513 18.2925 6.70749L16 4.41374ZM24 15.4525V12C24 11.4696 23.7893 10.9609 23.4142 10.5858C23.0391 10.2107 22.5304 9.99999 22 9.99999H20C19.7348 9.99999 19.4804 10.1054 19.2929 10.2929C19.1054 10.4804 19 10.7348 19 11C19 11.2652 19.1054 11.5196 19.2929 11.7071C19.4804 11.8946 19.7348 12 20 12H22V22.05C21.4036 21.4408 20.6055 21.0702 19.7552 21.0078C18.905 20.9453 18.0612 21.1953 17.3823 21.7109C16.7033 22.2264 16.2359 22.972 16.0677 23.8078C15.8995 24.6435 16.0421 25.5119 16.4688 26.25L16.4988 26.2975L19.2812 30.5475C19.4265 30.7694 19.6539 30.9246 19.9135 30.9789C20.1731 31.0332 20.4437 30.9821 20.6656 30.8369C20.8876 30.6917 21.0428 30.4642 21.097 30.2046C21.1513 29.945 21.1002 29.6744 20.955 29.4525L18.1887 25.2287C17.9927 24.8825 17.9421 24.4725 18.0483 24.089C18.1545 23.7055 18.4087 23.3798 18.755 23.1837C19.1013 22.9877 19.5113 22.9371 19.8948 23.0433C20.2783 23.1495 20.6039 23.4037 20.8 23.75C20.8087 23.7662 20.8188 23.7825 20.8288 23.7975L22.1637 25.8362C22.2818 26.0162 22.4547 26.1533 22.6568 26.2272C22.8589 26.301 23.0795 26.3077 23.2857 26.2462C23.492 26.1847 23.6729 26.0583 23.8015 25.8858C23.9302 25.7134 23.9998 25.5039 24 25.2887V18C24.9426 18.8725 25.6954 19.9298 26.2115 21.1059C26.7276 22.282 26.996 23.5518 27 24.8362V30C27 30.2652 27.1054 30.5196 27.2929 30.7071C27.4804 30.8946 27.7348 31 28 31C28.2652 31 28.5196 30.8946 28.7071 30.7071C28.8946 30.5196 29 30.2652 29 30V24.8312C28.9943 22.9788 28.5358 21.1558 27.6643 19.5211C26.7928 17.8865 25.5349 16.4897 24 15.4525ZM10 9.99999H8C7.46957 9.99999 6.96086 10.2107 6.58579 10.5858C6.21071 10.9609 6 11.4696 6 12V25C6 25.2652 6.10536 25.5196 6.29289 25.7071C6.48043 25.8946 6.73478 26 7 26C7.26522 26 7.51957 25.8946 7.70711 25.7071C7.89464 25.5196 8 25.2652 8 25V12H10C10.2652 12 10.5196 11.8946 10.7071 11.7071C10.8946 11.5196 11 11.2652 11 11C11 10.7348 10.8946 10.4804 10.7071 10.2929C10.5196 10.1054 10.2652 9.99999 10 9.99999Z" fill="#BC1823"/>
</svg>
