<svg width="126" height="126" viewBox="0 0 126 126" fill="none" xmlns="http://www.w3.org/2000/svg">
<rect y="62.5648" width="88.7657" height="89.0157" rx="20" transform="rotate(-44.8159 0 62.5648)" fill="#D25E66"/>
<g filter="url(#filter0_d_319_41)">
<path d="M49.25 82.5833C48.0354 82.5833 46.996 82.1512 46.1318 81.287C45.2676 80.4228 44.8348 79.3827 44.8333 78.1666V56.0833C44.8333 54.8687 45.2661 53.8293 46.1318 52.9651C46.9975 52.101 48.0369 51.6681 49.25 51.6666H51.4583V47.25C51.4583 44.1951 52.5352 41.5915 54.6891 39.4391C56.843 37.2867 59.4466 36.2098 62.5 36.2083C65.5534 36.2068 68.1577 37.2838 70.3131 39.4391C72.4684 41.5944 73.5446 44.1981 73.5416 47.25V51.6666H75.75C76.9646 51.6666 78.0047 52.0995 78.8704 52.9651C79.736 53.8308 80.1681 54.8702 80.1666 56.0833V78.1666C80.1666 79.3812 79.7346 80.4214 78.8704 81.287C78.0062 82.1527 76.966 82.5848 75.75 82.5833H49.25ZM49.25 78.1666H75.75V56.0833H49.25V78.1666ZM62.5 71.5416C63.7146 71.5416 64.7547 71.1096 65.6204 70.2454C66.486 69.3812 66.9181 68.341 66.9166 67.125C66.9152 65.9089 66.4831 64.8695 65.6204 64.0068C64.7576 63.1441 63.7175 62.7113 62.5 62.7083C61.2825 62.7054 60.2431 63.1382 59.3818 64.0068C58.5206 64.8754 58.0877 65.9148 58.0833 67.125C58.0789 68.3352 58.5117 69.3753 59.3818 70.2454C60.2519 71.1154 61.2913 71.5475 62.5 71.5416ZM55.875 51.6666H69.125V47.25C69.125 45.4097 68.4809 43.8455 67.1927 42.5573C65.9045 41.2691 64.3403 40.625 62.5 40.625C60.6597 40.625 59.0955 41.2691 57.8073 42.5573C56.5191 43.8455 55.875 45.4097 55.875 47.25V51.6666Z" fill="white"/>
</g>
<defs>
<filter id="filter0_d_319_41" x="12" y="26" width="101" height="101" filterUnits="userSpaceOnUse" color-interpolation-filters="sRGB">
<feFlood flood-opacity="0" result="BackgroundImageFix"/>
<feColorMatrix in="SourceAlpha" type="matrix" values="0 0 0 0 0 0 0 0 0 0 0 0 0 0 0 0 0 0 127 0" result="hardAlpha"/>
<feMorphology radius="8" operator="erode" in="SourceAlpha" result="effect1_dropShadow_319_41"/>
<feOffset dy="16"/>
<feGaussianBlur stdDeviation="16"/>
<feComposite in2="hardAlpha" operator="out"/>
<feColorMatrix type="matrix" values="0 0 0 0 0.0470588 0 0 0 0 0.0470588 0 0 0 0 0.0509804 0 0 0 0.4 0"/>
<feBlend mode="normal" in2="BackgroundImageFix" result="effect1_dropShadow_319_41"/>
<feBlend mode="normal" in="SourceGraphic" in2="effect1_dropShadow_319_41" result="shape"/>
</filter>
</defs>
</svg>
