<svg width="35" height="35" viewBox="0 0 35 35" fill="none" xmlns="http://www.w3.org/2000/svg">
<path d="M17.5 5.83333C20.723 5.83333 23.3334 8.44374 23.3334 11.6667C23.3334 14.8896 20.723 17.5 17.5 17.5C14.2771 17.5 11.6667 14.8896 11.6667 11.6667C11.6667 8.44374 14.2771 5.83333 17.5 5.83333ZM17.5 8.74999C15.8959 8.74999 14.5834 10.0625 14.5834 11.6667C14.5834 13.2708 15.8959 14.5833 17.5 14.5833C19.1042 14.5833 20.4167 13.2854 20.4167 11.6667C20.4167 10.0479 19.1188 8.74999 17.5 8.74999ZM17.5 18.9583C21.3938 18.9583 29.1667 20.8979 29.1667 24.7917V29.1667H5.83337V24.7917C5.83337 20.8979 13.6063 18.9583 17.5 18.9583ZM17.5 21.7292C13.1688 21.7292 8.60421 23.8583 8.60421 24.7917V26.3958H26.3959V24.7917C26.3959 23.8583 21.8313 21.7292 17.5 21.7292ZM18.9584 32.0833H16.0417V35H18.9584V32.0833ZM24.7917 32.0833H21.875V35H24.7917V32.0833ZM13.125 32.0833H10.2084V35H13.125V32.0833Z" fill="#BC1823"/>
</svg>
