<svg width="47" height="53" viewBox="0 0 47 53" fill="none" xmlns="http://www.w3.org/2000/svg">
<path d="M14.4613 8.90001C16.9022 8.90001 18.8613 6.91451 18.8613 4.50001C18.8613 2.05911 16.9022 0.100006 14.4613 0.100006C12.0347 0.100006 10.0613 2.06021 10.0613 4.50001C10.0613 6.91451 12.0347 8.90001 14.4613 8.90001ZM17.5677 49.2425C10.0745 49.2425 3.99812 43.0814 3.99812 35.4518C3.99812 31.2751 5.85602 27.5483 8.75453 25.0139L8.51363 20.6997C3.66042 23.7819 0.400024 29.2038 0.400024 35.4518C0.400024 45.079 8.08133 52.9 17.5677 52.9C24.5483 52.9 30.7182 47.9819 33.4 41.9L30.7864 38.3008C29.495 44.5323 24.0874 49.2425 17.5677 49.2425ZM44.4 40.8H42.2L33.4 28.7C32.9237 27.8629 31.2 25.4 29 25.4H19.1V21H27.9C29.0396 21 30.2694 20.5149 30.2694 19.3434C30.2694 18.1807 29.0715 17.7 27.9 17.7H19.1V13.3C18.9383 10.8602 16.9 10 14.711 10.0506C12.5 10.1012 11.4 11.1 11.4 13.3V28.7C11.609 31.1706 13.3877 32 15.8 32H29L36.7 41.9C37.1961 42.7206 38.9 45.2 38.9 45.2H44.4C45.5352 45.2 46.6 44.1682 46.6 43C46.6 41.8373 45.5704 40.8 44.4 40.8Z" fill="white"/>
</svg>
