<svg width="29" height="55" viewBox="0 0 29 55" fill="none" xmlns="http://www.w3.org/2000/svg">
<path d="M14.5 10.3125C15.8675 10.3125 17.179 9.76925 18.146 8.80227C19.113 7.83528 19.6562 6.52377 19.6562 5.15625C19.6562 3.78873 19.113 2.47722 18.146 1.51023C17.179 0.543246 15.8675 0 14.5 0C13.1325 0 11.821 0.543246 10.854 1.51023C9.887 2.47722 9.34375 3.78873 9.34375 5.15625C9.34375 6.52377 9.887 7.83528 10.854 8.80227C11.821 9.76925 13.1325 10.3125 14.5 10.3125ZM7.625 23.2031V52.4219C7.625 53.1056 7.89662 53.7614 8.38012 54.2449C8.86361 54.7284 9.51936 55 10.2031 55C10.8869 55 11.5426 54.7284 12.0261 54.2449C12.5096 53.7614 12.7812 53.1056 12.7812 52.4219V36.0938C12.7812 35.6379 12.9623 35.2007 13.2847 34.8784C13.607 34.5561 14.0442 34.375 14.5 34.375C14.9558 34.375 15.393 34.5561 15.7153 34.8784C16.0377 35.2007 16.2188 35.6379 16.2188 36.0938V52.4219C16.2188 53.1056 16.4904 53.7614 16.9739 54.2449C17.4574 54.7284 18.1131 55 18.7969 55C19.4806 55 20.1364 54.7284 20.6199 54.2449C21.1034 53.7614 21.375 53.1056 21.375 52.4219V23.2031C21.375 22.9752 21.4655 22.7566 21.6267 22.5955C21.7879 22.4343 22.0065 22.3438 22.2344 22.3438C22.4623 22.3438 22.6809 22.4343 22.842 22.5955C23.0032 22.7566 23.0938 22.9752 23.0938 23.2031V31.7969C23.0938 32.4806 23.3654 33.1364 23.8489 33.6199C24.3324 34.1034 24.9881 34.375 25.6719 34.375C26.3556 34.375 27.0114 34.1034 27.4949 33.6199C27.9784 33.1364 28.25 32.4806 28.25 31.7969V22.3438C28.25 19.6087 27.1635 16.9857 25.2295 15.0517C23.2956 13.1177 20.6725 12.0312 17.9375 12.0312H11.0625C8.32746 12.0312 5.70443 13.1177 3.77046 15.0517C1.83649 16.9857 0.75 19.6087 0.75 22.3438V31.7969C0.75 32.4806 1.02162 33.1364 1.50512 33.6199C1.98861 34.1034 2.64436 34.375 3.32812 34.375C4.01189 34.375 4.66764 34.1034 5.15113 33.6199C5.63463 33.1364 5.90625 32.4806 5.90625 31.7969V23.2031C5.90625 22.9752 5.99679 22.7566 6.15795 22.5955C6.31912 22.4343 6.5377 22.3438 6.76562 22.3438C6.99355 22.3438 7.21213 22.4343 7.3733 22.5955C7.53446 22.7566 7.625 22.9752 7.625 23.2031Z" fill="white"/>
</svg>
