<svg width="55" height="55" viewBox="0 0 55 55" fill="none" xmlns="http://www.w3.org/2000/svg">
<path d="M27.5 10.3125C28.8675 10.3125 30.179 9.76925 31.146 8.80227C32.113 7.83528 32.6562 6.52377 32.6562 5.15625C32.6562 3.78873 32.113 2.47722 31.146 1.51023C30.179 0.543246 28.8675 0 27.5 0C26.1325 0 24.821 0.543246 23.854 1.51023C22.887 2.47722 22.3438 3.78873 22.3438 5.15625C22.3438 6.52377 22.887 7.83528 23.854 8.80227C24.821 9.76925 26.1325 10.3125 27.5 10.3125ZM20.625 23.2031V52.4219C20.625 53.1056 20.8966 53.7614 21.3801 54.2449C21.8636 54.7284 22.5194 55 23.2031 55C23.8869 55 24.5426 54.7284 25.0261 54.2449C25.5096 53.7614 25.7812 53.1056 25.7812 52.4219V36.0938C25.7812 35.6379 25.9623 35.2007 26.2847 34.8784C26.607 34.5561 27.0442 34.375 27.5 34.375C27.9558 34.375 28.393 34.5561 28.7153 34.8784C29.0377 35.2007 29.2188 35.6379 29.2188 36.0938V52.4219C29.2188 53.1056 29.4904 53.7614 29.9739 54.2449C30.4574 54.7284 31.1131 55 31.7969 55C32.4806 55 33.1364 54.7284 33.6199 54.2449C34.1034 53.7614 34.375 53.1056 34.375 52.4219V23.2031C34.375 22.9752 34.4655 22.7566 34.6267 22.5955C34.7879 22.4343 35.0065 22.3438 35.2344 22.3438C35.4623 22.3438 35.6809 22.4343 35.842 22.5955C36.0032 22.7566 36.0938 22.9752 36.0938 23.2031V31.7969C36.0938 32.4806 36.3654 33.1364 36.8489 33.6199C37.3324 34.1034 37.9881 34.375 38.6719 34.375C39.3556 34.375 40.0114 34.1034 40.4949 33.6199C40.9784 33.1364 41.25 32.4806 41.25 31.7969V22.3438C41.25 19.6087 40.1635 16.9857 38.2295 15.0517C36.2956 13.1177 33.6725 12.0313 30.9375 12.0312H24.0625C21.3275 12.0313 18.7044 13.1177 16.7705 15.0517C14.8365 16.9857 13.75 19.6087 13.75 22.3438V31.7969C13.75 32.4806 14.0216 33.1364 14.5051 33.6199C14.9886 34.1034 15.6444 34.375 16.3281 34.375C17.0119 34.375 17.6676 34.1034 18.1511 33.6199C18.6346 33.1364 18.9062 32.4806 18.9062 31.7969V23.2031C18.9062 22.9752 18.9968 22.7566 19.158 22.5955C19.3191 22.4343 19.5377 22.3438 19.7656 22.3438C19.9935 22.3438 20.2121 22.4343 20.3733 22.5955C20.5345 22.7566 20.625 22.9752 20.625 23.2031Z" fill="white"/>
</svg>
