<svg width="33" height="34" viewBox="0 0 33 34" fill="none" xmlns="http://www.w3.org/2000/svg">
<path d="M16.5 27.4286V32.1429M22.3928 25.0714V29.7857M10.6071 25.0714V29.7857M19.008 8.30979C18.8737 7.92586 18.6231 7.59332 18.291 7.35843C17.959 7.12354 17.562 6.99798 17.1552 6.99922H15.6349C15.2037 7.00075 14.7882 7.16108 14.4678 7.44958C14.1473 7.73807 13.9444 8.13451 13.8977 8.56316C13.8511 8.99182 13.9639 9.42263 14.2148 9.77331C14.4657 10.124 14.837 10.37 15.2578 10.4642L17.5748 10.9734C18.0466 11.0786 18.4631 11.3539 18.7448 11.7468C19.0264 12.1397 19.1534 12.6226 19.1015 13.1032C19.0495 13.5838 18.8224 14.0284 18.4634 14.3521C18.1043 14.6758 17.6386 14.8559 17.1552 14.8579H15.8447C15.4379 14.8592 15.0409 14.7336 14.7089 14.4987C14.3768 14.2638 14.1262 13.9313 13.992 13.5474M16.5 6.99922V5.03572M16.5 16.8214V14.8579M6.48211 11.5179C6.32582 11.5179 6.17593 11.4558 6.06542 11.3453C5.95491 11.2348 5.89282 11.0849 5.89282 10.9286C5.89282 10.7723 5.95491 10.6224 6.06542 10.5119C6.17593 10.4014 6.32582 10.3393 6.48211 10.3393C6.6384 10.3393 6.78828 10.4014 6.8988 10.5119C7.00931 10.6224 7.07139 10.7723 7.07139 10.9286C7.07139 11.0849 7.00931 11.2348 6.8988 11.3453C6.78828 11.4558 6.6384 11.5179 6.48211 11.5179ZM26.5178 11.5179C26.3615 11.5179 26.2116 11.4558 26.1011 11.3453C25.9906 11.2348 25.9285 11.0849 25.9285 10.9286C25.9285 10.7723 25.9906 10.6224 26.1011 10.5119C26.2116 10.4014 26.3615 10.3393 26.5178 10.3393C26.6741 10.3393 26.824 10.4014 26.9345 10.5119C27.045 10.6224 27.1071 10.7723 27.1071 10.9286C27.1071 11.0849 27.045 11.2348 26.9345 11.3453C26.824 11.4558 26.6741 11.5179 26.5178 11.5179Z" stroke="white" stroke-width="2" stroke-linecap="round" stroke-linejoin="round"/>
<path d="M29.4643 1.17857H3.53573C2.91058 1.17857 2.31103 1.42691 1.86898 1.86896C1.42693 2.31101 1.17859 2.91056 1.17859 3.53572V17.6786C1.17859 18.3037 1.42693 18.9033 1.86898 19.3453C2.31103 19.7874 2.91058 20.0357 3.53573 20.0357H29.4643C30.0895 20.0357 30.689 19.7874 31.1311 19.3453C31.5731 18.9033 31.8214 18.3037 31.8214 17.6786V3.53572C31.8214 2.91056 31.5731 2.31101 31.1311 1.86896C30.689 1.42691 30.0895 1.17857 29.4643 1.17857Z" stroke="white" stroke-width="2" stroke-linecap="round" stroke-linejoin="round"/>
</svg>
