<svg width="55" height="55" viewBox="0 0 55 55" fill="none" xmlns="http://www.w3.org/2000/svg">
<path d="M18.4613 9.90001C20.9022 9.90001 22.8613 7.91451 22.8613 5.50001C22.8613 3.05911 20.9022 1.10001 18.4613 1.10001C16.0347 1.10001 14.0613 3.06021 14.0613 5.50001C14.0613 7.91451 16.0347 9.90001 18.4613 9.90001ZM21.5677 50.2425C14.0745 50.2425 7.99812 44.0814 7.99812 36.4518C7.99812 32.2751 9.85602 28.5483 12.7545 26.0139L12.5136 21.6997C7.66042 24.7819 4.40002 30.2038 4.40002 36.4518C4.40002 46.079 12.0813 53.9 21.5677 53.9C28.5483 53.9 34.7182 48.9819 37.4 42.9L34.7864 39.3008C33.495 45.5323 28.0874 50.2425 21.5677 50.2425ZM48.4 41.8H46.2L37.4 29.7C36.9237 28.8629 35.2 26.4 33 26.4H23.1V22H31.9C33.0396 22 34.2694 21.5149 34.2694 20.3434C34.2694 19.1807 33.0715 18.7 31.9 18.7H23.1V14.3C22.9383 11.8602 20.9 11 18.711 11.0506C16.5 11.1012 15.4 12.1 15.4 14.3V29.7C15.609 32.1706 17.3877 33 19.8 33H33L40.7 42.9C41.1961 43.7206 42.9 46.2 42.9 46.2H48.4C49.5352 46.2 50.6 45.1682 50.6 44C50.6 42.8373 49.5704 41.8 48.4 41.8Z" fill="white"/>
</svg>
