<svg width="35" height="35" viewBox="0 0 35 35" fill="none" xmlns="http://www.w3.org/2000/svg">
<path d="M28.7947 18.9583C29.8189 17.4862 30.4371 15.7703 30.5872 13.9833C30.7374 12.1963 30.4141 10.4013 29.65 8.77893C28.8859 7.15657 27.7079 5.76412 26.2346 4.74175C24.7613 3.71937 23.0447 3.10315 21.2575 2.95511C19.4703 2.80706 17.6757 3.13242 16.0542 3.89844C14.4328 4.66445 13.0417 5.84409 12.0211 7.31861C11.0004 8.79313 10.3862 10.5105 10.2403 12.2978C10.0943 14.0852 10.4218 15.8794 11.1897 17.5" stroke="white" stroke-width="2.1875" stroke-linecap="round" stroke-linejoin="round"/>
<path d="M23.3333 16.3042C22.7515 17.4577 21.6942 18.2292 20.4852 18.2292C18.6506 18.2292 17.1631 16.4515 17.1631 14.2596V11.9904C17.1631 9.79855 18.6506 8.02084 20.4852 8.02084C21.6942 8.02084 22.7515 8.7923 23.3333 9.94584M15.3125 13.125H20.8104M4.375 20.4167H7.86771C8.29646 20.4167 8.71938 20.5129 9.10292 20.6996L12.0808 22.1404C12.4644 22.3256 12.8873 22.4219 13.3175 22.4219H14.8371C16.3071 22.4219 17.5 23.5754 17.5 24.9988C17.5 25.0571 17.4606 25.1067 17.4038 25.1227L13.6981 26.1479C13.0332 26.3316 12.3242 26.2673 11.7031 25.9671L8.51958 24.4271M17.5 24.0625L24.1981 22.0048C24.7813 21.8259 25.406 21.8357 25.9832 22.0329C26.5604 22.2301 27.0606 22.6046 27.4123 23.1029C27.9504 23.8467 27.7317 24.9142 26.9471 25.3663L15.9877 31.6911C15.645 31.8893 15.2656 32.0158 14.8724 32.0626C14.4793 32.1095 14.0807 32.0759 13.701 31.9638L4.375 29.1958" stroke="white" stroke-width="2.1875" stroke-linecap="round" stroke-linejoin="round"/>
</svg>
