<svg width="35" height="35" viewBox="0 0 35 35" fill="none" xmlns="http://www.w3.org/2000/svg">
<path d="M29.1666 20.4167C29.5383 20.4171 29.8959 20.5594 30.1661 20.8146C30.4364 21.0697 30.5991 21.4185 30.6208 21.7895C30.6426 22.1606 30.5219 22.526 30.2833 22.811C30.0448 23.096 29.7064 23.2792 29.3373 23.3231L29.1666 23.3333H9.35372L12.6977 26.6773C12.9592 26.9397 13.1111 27.2919 13.1224 27.6622C13.1337 28.0326 13.0036 28.3933 12.7586 28.6712C12.5135 28.9491 12.1719 29.1234 11.803 29.1585C11.4342 29.1936 11.0658 29.0871 10.7727 28.8604L10.6356 28.7394L5.05018 23.1539C4.08039 22.1856 4.70164 20.5537 6.01705 20.4254L6.18476 20.4167H29.1666ZM22.3023 6.26062C22.5534 6.00953 22.8875 5.85869 23.2419 5.8364C23.5963 5.81412 23.9467 5.92192 24.2273 6.13957L24.3643 6.26062L29.9498 11.846C30.9196 12.8144 30.2983 14.4462 28.9829 14.5746L28.8152 14.5833H5.8333C5.46161 14.5829 5.10409 14.4406 4.83381 14.1854C4.56353 13.9303 4.40088 13.5815 4.3791 13.2105C4.35731 12.8394 4.47804 12.474 4.71661 12.189C4.95518 11.9039 5.29358 11.7208 5.66268 11.6769L5.8333 11.6667H25.6462L22.3023 8.3227C22.0289 8.04922 21.8753 7.67836 21.8753 7.29166C21.8753 6.90496 22.0289 6.53409 22.3023 6.26062Z" fill="#BC1823"/>
</svg>
