<svg width="32" height="32" viewBox="0 0 32 32" fill="none" xmlns="http://www.w3.org/2000/svg">
<path d="M25.2466 18.5933L24.3533 13.7293C23.9666 11.628 23.7733 10.5773 23.0093 9.95601C22.2453 9.33468 21.1466 9.33334 18.9506 9.33334H13.0493C10.8533 9.33334 9.75595 9.33334 8.99062 9.95601C8.22662 10.5773 8.03329 11.628 7.64662 13.7293L6.75329 18.5933C5.95329 22.9547 5.55196 25.136 6.78529 26.5667C8.01862 28 10.2986 28 14.856 28H17.144C21.7013 28 23.9813 28 25.2146 26.568C26.448 25.136 26.048 22.9547 25.2466 18.5947" stroke="white" stroke-width="1.5" stroke-linecap="round" stroke-linejoin="round"/>
<path d="M16 14V22.6667M12.6666 20L16 23.3333L19.3333 20M28 14.6667C28.206 14.5639 28.3927 14.4263 28.552 14.26C29.3333 13.452 29.3333 12.1467 29.3333 9.536C29.3333 6.92533 29.3333 5.62133 28.552 4.81067C27.7706 4 26.5146 4 24 4H7.99996C5.48529 4 4.22929 4 3.44796 4.81067C2.66663 5.62133 2.66663 6.92667 2.66663 9.536C2.66663 12.1453 2.66663 13.4507 3.44796 14.26C3.60796 14.4271 3.79196 14.5627 3.99996 14.6667" stroke="white" stroke-width="1.5" stroke-linecap="round" stroke-linejoin="round"/>
</svg>
